<svg version="1.1" xmlns="http://www.w3.org/2000/svg" style="display: block;" viewBox="0 0 2039 2048" width="1080" height="1085" preserveAspectRatio="none">
<path transform="translate(0,0)" fill="rgb(14,21,19)" d="M 944.103 180.499 C 974.006 180.285 1005.12 178.608 1034.7 181.865 C 1061.75 184.843 1064.35 213.291 1075.71 224.04 C 1080.74 221.724 1087.5 195.628 1105.35 186.581 C 1123.33 177.47 1176.48 189.04 1197.49 192.741 C 1207.86 194.57 1218.4 195.402 1228.76 197.347 C 1268.45 204.795 1308.69 215.015 1347.29 226.862 C 1365.2 232.36 1375.75 240.376 1384.55 256.934 C 1392.26 251.03 1401.99 247.583 1411.74 248.057 C 1430.96 248.991 1497.27 280.639 1514.57 292.705 C 1524.65 299.726 1532.73 307.736 1540.78 316.967 C 1545.79 316.273 1554.71 315.602 1559.5 317.579 C 1587.53 329.141 1614.36 347.318 1640.44 362.766 C 1657.71 372.999 1669.74 378.128 1674.84 398.288 C 1695.13 402.832 1707.67 407.888 1724.53 420.868 C 1776.54 460.938 1826.66 503.411 1871.89 551.12 C 1894.88 575.42 1888.55 597.691 1876.13 624.538 C 1860.74 657.791 1855.03 676.933 1813.04 673.131 L 1778.43 751.032 C 1767.25 776.325 1757.9 807.907 1731.54 820.736 C 1689.67 841.116 1666.01 807.627 1638.52 782.434 C 1626.11 771.187 1613.48 760.179 1600.65 749.416 C 1538.65 697.408 1471.44 656.382 1398.43 621.984 C 1384.06 615.215 1360.67 603.771 1346.16 598.574 L 1344.74 598.073 C 1358.13 609.087 1370.88 623.4 1382.24 636.414 C 1496.84 767.667 1534.95 955.603 1476.73 1120.36 C 1445.31 1209.3 1392.63 1275.57 1321.16 1335.79 L 1323.35 1335.8 C 1346.55 1335.99 1384.91 1331.66 1409.14 1329.7 C 1468.52 1325.37 1527.77 1319.42 1586.83 1311.85 C 1637.22 1305.31 1687.33 1297.82 1737.89 1292.34 C 1768.8 1289 1794.78 1306.63 1795.6 1339.18 C 1796.16 1361.25 1795.98 1382.97 1795.96 1404.93 L 1795.87 1526.59 L 1795.97 1598.9 C 1796.01 1624.97 1799.74 1647.48 1780.94 1668.36 C 1764.35 1687.69 1741.06 1687.31 1717.85 1690.13 C 1661.57 1696.96 1605.56 1699.47 1549.01 1702.49 C 1514.92 1704.59 1480.82 1706.51 1446.71 1708.24 C 1424.72 1729.05 1402.73 1754.32 1379.68 1773.64 C 1365.63 1785.41 1336.69 1796.23 1318.24 1797.35 C 1263.59 1800.67 1208.57 1804.09 1153.75 1805.9 C 1114.98 1807.39 1076.2 1808.42 1037.41 1808.97 C 965.564 1809.68 889.649 1806.19 817.985 1802.7 L 756.325 1799.88 C 658.893 1795.21 655.274 1769.86 590.666 1706.49 C 507.02 1703.69 422.575 1699.66 339.183 1692.02 C 300.291 1688.46 253.925 1690.17 244.979 1640.66 C 242.692 1628 243.975 1608.27 243.977 1595.11 L 244.03 1515.23 L 243.957 1400.74 C 243.938 1383.45 243.911 1366.11 243.931 1348.79 C 243.569 1330.97 246.686 1316.37 260.784 1304.22 C 282.419 1285.58 317.825 1295.6 344.314 1298.82 L 469.56 1315.23 C 550.921 1325.46 631.322 1331.01 712.828 1337.98 C 476.425 1147.51 466.872 814.423 680.582 602.56 C 571.943 648.223 471.913 712.127 384.816 791.51 C 365.406 808.97 346.036 832.284 321.064 839.268 C 306.407 843.368 288.631 842.569 275.296 834.832 C 259.971 825.939 255.161 813.116 250.962 797.044 C 236.998 742.342 223.562 687.506 210.654 632.544 L 197.642 580.24 C 180.388 510.933 199.33 516.527 247.117 470.435 C 266.452 451.786 303.845 412.904 329.558 406.74 C 332.299 401.277 336.148 395.16 341.215 391.441 C 413.351 338.489 490.773 291.268 574.03 257.926 C 595.965 249.142 609.321 251.74 629.874 259.879 C 639.882 237.489 647.059 227.316 672.395 220.618 C 692.789 215.226 716.315 205.348 737.32 212.269 C 747.372 215.581 755.973 224.16 765.476 227.088 C 773.332 225.856 777.737 214.968 783.55 209.87 C 813.457 183.643 858.157 178.203 895.68 189.124 C 912.921 180.688 925.309 180.857 944.103 180.499 z"/>
<path transform="translate(0,0)" fill="rgb(200,54,37)" d="M 591.271 929.928 C 591.07 916.832 593.578 898.986 595.764 885.801 C 607.995 812.01 643.005 735.549 691.63 678.631 C 764.515 592.855 868.552 539.627 980.758 530.706 C 1081.32 522.904 1199.27 552.239 1276.85 618.408 C 1289.76 626.667 1305.27 641.533 1316.31 652.623 C 1374.08 711.123 1413.81 785.004 1430.76 865.457 C 1435.61 887.706 1438.72 910.299 1440.06 933.031 C 1418.64 929.727 1395.11 928.492 1373.51 926.397 C 1368.03 925.866 1335.46 924.363 1332.3 923.245 C 1281.29 921.707 1233.96 918.132 1181.8 918.128 C 1180.33 911.751 1174.91 898.762 1172.17 892.711 C 1153.15 850.203 1117.83 817.14 1074.15 800.98 C 1031.29 785.52 984.037 787.735 942.807 807.136 C 893.127 830.373 867.1 868.706 849.191 918.563 C 831.172 917.441 787.806 919.153 769.553 919.899 C 711.392 922.276 648.979 924.221 591.271 929.928 z"/>
<path transform="translate(0,0)" fill="rgb(146,38,28)" d="M 1276.85 618.408 C 1289.76 626.667 1305.27 641.533 1316.31 652.623 C 1374.08 711.123 1413.81 785.004 1430.76 865.457 C 1435.61 887.706 1438.72 910.299 1440.06 933.031 C 1418.64 929.727 1395.11 928.492 1373.51 926.397 C 1368.03 925.866 1335.46 924.363 1332.3 923.245 C 1335.04 922.876 1336.37 922.895 1339.09 922.87 C 1341.93 919.045 1344.5 896.145 1345.46 890.342 C 1359.21 806.769 1343.56 718.027 1296.32 647.079 C 1290.59 638.468 1280.87 627.508 1276.85 618.408 z"/>
<path transform="translate(0,0)" fill="rgb(239,143,110)" d="M 909.079 590.344 L 909.592 590.821 C 911.213 587.54 840.973 642.856 834.516 648.464 C 809.888 669.813 787.396 693.51 767.36 719.219 C 759.692 729.141 752.407 739.353 745.521 749.832 C 730.653 772.747 703.04 829.932 670.586 821.731 C 657.337 800.818 686.717 747.14 699.036 729.551 C 737.996 673.926 795.391 627.522 858.543 602.37 C 874.198 596.135 892.618 593.436 909.079 590.344 z"/>
<path transform="translate(0,0)" fill="rgb(232,219,185)" d="M 1184.26 993.737 C 1228.3 993.762 1276.9 994.261 1321.01 997.223 C 1356.66 999.034 1404.99 1001.33 1440.09 1005.3 C 1426.17 1120.72 1366.37 1225.68 1274.17 1296.51 C 1186.61 1365.59 1074.86 1396.38 964.272 1381.91 C 884.14 1371.3 808.593 1338.42 746.221 1287 C 734.16 1277.15 715.807 1260.98 706.207 1249.22 C 642.376 1188.08 601.457 1089 592.736 1001.89 C 676.93 996.461 761.279 993.786 845.648 993.871 C 849.099 1014.67 856.509 1034.61 867.477 1052.62 C 934.463 1163.91 1097.69 1162.85 1163.23 1050.82 C 1174.15 1032.14 1179.4 1014.57 1184.26 993.737 z"/>
<path transform="translate(0,0)" fill="rgb(191,182,166)" d="M 1321.01 997.223 C 1356.66 999.034 1404.99 1001.33 1440.09 1005.3 C 1426.17 1120.72 1366.37 1225.68 1274.17 1296.51 C 1186.61 1365.59 1074.86 1396.38 964.272 1381.91 C 884.14 1371.3 808.593 1338.42 746.221 1287 C 734.16 1277.15 715.807 1260.98 706.207 1249.22 C 712.851 1249.86 714.286 1251.99 719.851 1255.36 C 842.295 1329.48 999.521 1347.17 1127.71 1276.46 C 1218.73 1226.26 1283.25 1143.22 1312.52 1043.54 C 1314.96 1035.22 1324.29 1003.29 1321.01 997.223 z"/>
<path transform="translate(0,0)" fill="rgb(232,219,185)" d="M 1000.81 855.175 C 1060.07 847.174 1114.59 888.762 1122.54 948.035 C 1130.49 1007.31 1088.86 1061.79 1029.58 1069.69 C 970.368 1077.58 915.965 1036.01 908.025 976.805 C 900.085 917.604 941.612 863.166 1000.81 855.175 z"/>
<path transform="translate(0,0)" fill="rgb(14,21,19)" d="M 1010.05 902.292 C 1022.26 901.463 1031.26 902.066 1042.78 905.95 C 1001.83 905.674 968.259 919.909 960.077 963.777 C 959.106 975.633 959.604 980.997 961.531 992.751 C 944.006 950.063 963.571 909.364 1010.05 902.292 z"/>
<path transform="translate(0,0)" fill="rgb(232,219,185)" d="M 306.611 1364.28 C 363.679 1373.4 417.099 1365.03 414.739 1440.68 C 414.017 1463.81 421.567 1490.83 393.641 1500.02 C 419.446 1515 418.266 1534.02 418.385 1560.81 C 418.46 1577.85 419.192 1591.03 414.404 1607.59 C 395.483 1645.76 343.14 1629.97 307.314 1625.77 C 305.829 1540.89 306.053 1449.27 306.611 1364.28 z"/>
<path transform="translate(0,0)" fill="rgb(14,21,19)" d="M 346.765 1518.78 C 375.167 1521.63 380.503 1520.05 380.07 1553.21 C 379.943 1562.88 381.561 1576.05 377.282 1584.73 C 367.441 1588.63 356.891 1586.1 346.605 1584.45 C 345.786 1564.59 346.479 1538.72 346.765 1518.78 z"/>
<path transform="translate(0,0)" fill="rgb(14,21,19)" d="M 345.97 1415.1 C 353.095 1415.75 371.162 1416.24 373.951 1423.57 C 377.89 1433.92 377.943 1465.17 375.181 1475.34 C 367.812 1478.69 354.064 1476.66 346.041 1475.69 L 345.97 1415.1 z"/>
<path transform="translate(0,0)" fill="rgb(232,219,185)" d="M 1410.43 294.939 C 1419.35 298.905 1430.47 304.327 1438.8 307.996 C 1484.3 328.046 1524.62 344.647 1504.39 403.96 C 1499.5 418.285 1500.52 428.84 1488.08 441.203 C 1481.6 443.557 1477.41 443.747 1470.77 444.093 C 1495.87 467.929 1485.38 487.383 1478.68 516.506 C 1475.71 529.412 1473.03 540.583 1463.99 550.747 C 1441.68 568.888 1413.17 551.298 1391.55 540.63 C 1380.21 535.029 1368.84 529.488 1357.43 524.008 C 1361.79 498.563 1371.47 463.255 1377.69 437.584 C 1389.26 390.19 1400.17 342.637 1410.43 294.939 z"/>
<path transform="translate(0,0)" fill="rgb(14,21,19)" d="M 1418.58 444.299 C 1424.55 446.722 1438.86 452.191 1442.57 456.031 C 1450.39 464.139 1439.33 505.576 1433.08 512.162 C 1422.94 512.501 1413.5 506.424 1404.59 501.672 C 1409.41 482.587 1414.07 463.462 1418.58 444.299 z"/>
<path transform="translate(0,0)" fill="rgb(14,21,19)" d="M 1440.41 354.452 C 1464.05 363.167 1473.15 365.382 1464.87 392.315 C 1462.55 399.861 1461.81 408.97 1456.35 415.025 C 1447.97 414.673 1436.42 408.455 1428.46 404.768 C 1432.25 387.929 1437.39 371.57 1440.41 354.452 z"/>
<path transform="translate(0,0)" fill="rgb(232,219,185)" d="M 602.013 302.362 C 635.663 298.011 642.359 331.641 648.382 356.458 C 655.842 387.191 667.458 415.458 644.895 442.561 C 657.426 460.349 679.297 498.098 690.032 517.178 L 654.309 531.211 C 639.714 507.713 625.53 483.961 611.765 459.968 C 607.16 461.556 606.288 461.322 603.958 464.814 C 603.029 471.718 606.038 478.031 608.227 485.066 C 613.546 504.935 618.481 524.787 625.205 544.216 C 614.089 549.887 599.727 555.985 588.179 561.274 C 583.624 549.038 579.701 533.632 576.135 520.984 L 556.968 453.046 C 545.852 414.11 532.598 375.387 521.011 336.519 C 545.488 325.581 576.367 305.85 602.013 302.362 z"/>
<path transform="translate(0,0)" fill="rgb(14,21,19)" d="M 595.209 349.044 L 598.971 349.352 C 607.482 354.472 618.732 402.143 615.912 412.346 C 611.509 418.312 601.444 421.381 594.25 424.322 L 592.607 424.711 C 589.546 420.878 575.544 366.751 573.01 358.219 C 581.126 353.734 586.425 351.603 595.209 349.044 z"/>
<path transform="translate(0,0)" fill="rgb(232,219,185)" d="M 1132.27 230.056 C 1150.99 233.981 1170.71 236.562 1189.85 240.482 C 1191.17 273.126 1195.02 312.275 1197.61 345.178 L 1207.41 483.303 C 1193.23 481.424 1179.09 479.323 1164.98 476.998 C 1163.66 462.065 1164.45 442.557 1162.42 428.332 L 1160.88 427.278 C 1150.94 426.918 1137.32 424.601 1127.64 422.681 C 1123.8 437.396 1120.6 455.761 1117.14 471.135 C 1104.15 469.164 1089.63 467.902 1076.44 466.518 C 1085.47 436.98 1092.85 400.858 1100.14 370.142 C 1111.01 324.387 1123.42 276.097 1132.27 230.056 z"/>
<path transform="translate(0,0)" fill="rgb(14,21,19)" d="M 1155.33 286.66 C 1158.08 289.967 1162.01 378.745 1162.25 389.293 C 1156.26 388.32 1149.88 387.554 1143.83 386.728 C 1142.6 386.715 1136.98 385.72 1135.45 385.474 C 1141.81 352.483 1148.43 319.544 1155.33 286.66 z"/>
<path transform="translate(0,0)" fill="rgb(232,219,185)" d="M 464.176 1387.62 C 481.871 1389.29 501.553 1392.15 519.427 1394.26 C 520.875 1415.69 528.026 1452.93 531.405 1474.85 L 556.793 1642.06 L 516.141 1640.42 C 514.526 1629.8 513.47 1616.14 512.346 1605.24 L 510.776 1590.77 C 500.821 1590.78 486.128 1590.42 476.447 1588.92 C 473.581 1603.94 472.377 1621.46 469.827 1637.03 C 457.215 1635.66 443.837 1634.8 431.157 1633.83 C 443.862 1552 454.871 1469.91 464.176 1387.62 z"/>
<path transform="translate(0,0)" fill="rgb(14,21,19)" d="M 490.38 1440.77 C 491.8 1442.05 505.969 1542.68 506.405 1550.78 C 504.236 1552.49 504.204 1551.81 500.53 1551.58 L 480.774 1550.38 C 482.253 1516.01 488.242 1476.26 490.38 1440.77 z"/>
<path transform="translate(0,0)" fill="rgb(238,209,171)" d="M 1609.83 1379.42 C 1613 1378.91 1611.57 1378.61 1614.34 1379.64 C 1615.92 1382.79 1615.07 1391.19 1615.05 1395.25 L 1615.07 1438.01 L 1615.14 1543.45 C 1615.16 1598.75 1624.36 1640.8 1551.99 1640.4 C 1528.69 1640.27 1511.39 1633.9 1507.52 1607.88 C 1504.64 1588.54 1505.57 1566.91 1505.47 1547.51 L 1505.4 1435.65 L 1505.21 1391.76 C 1517.65 1390 1530.89 1388.7 1543.44 1387.28 L 1543.67 1516.04 C 1543.76 1538.16 1543.52 1560.31 1544.51 1582.4 C 1545.1 1595.52 1550.27 1597.22 1562.46 1596.27 C 1569.87 1595.69 1576.88 1591.79 1577.03 1583.54 C 1577.43 1562.4 1577.15 1541.17 1577.12 1520.02 L 1576.91 1383.78 L 1609.83 1379.42 z"/>
<path transform="translate(0,0)" fill="rgb(238,209,171)" d="M 735.217 258.279 C 740.394 261.626 803.913 457.645 812.821 481.662 C 799.559 484.78 784.808 488.518 771.869 492.542 C 766.967 477.433 762.187 462.285 757.529 447.1 C 751.37 449.408 742.128 451.944 735.638 453.948 L 725.916 457.592 C 727.061 473.202 728.287 488.805 729.594 504.402 C 717.389 508.846 703.471 513.047 691.008 517.077 L 680.702 271.322 C 698.048 266.676 717.594 262.517 735.217 258.279 z"/>
<path transform="translate(0,0)" fill="rgb(14,21,19)" d="M 716.276 312.83 C 719.344 315.583 747.061 406.529 746.576 411.344 L 744.739 412.367 C 737.649 414.036 730.229 416.1 723.147 417.95 C 722.871 386.515 717.971 345.76 716.276 312.83 z"/>
<path transform="translate(0,0)" fill="rgb(232,219,185)" d="M 866.74 234.417 C 911.905 228.053 911.571 277.016 912.087 307.545 C 899.528 308.597 885.746 310.415 873.127 311.822 C 872.697 303.394 874.13 292.085 871.068 284.247 C 869.905 281.272 867.782 278.938 864.718 277.833 C 859.122 275.814 850.363 276.835 845.163 279.607 C 841.777 281.412 839.618 284.263 838.74 287.978 C 836.86 295.93 846.707 401.888 848.635 416.894 C 849.084 420.385 849.691 425.955 851.804 428.806 C 853.915 431.655 857.386 432.793 860.805 432.975 C 864.844 433.191 874.138 431.839 876.837 428.747 C 882.987 421.704 878.188 389.412 877.472 379.701 C 871.65 380.583 866.256 380.916 860.392 381.336 C 860.048 368.607 858.579 354.915 857.873 341.989 C 871.251 341.046 884.607 339.813 897.932 338.292 L 914.103 336.785 L 917.163 389.879 C 919.084 423.095 926.394 465.743 881.765 472.967 C 866.184 475.489 842.193 479.585 828.63 469.775 C 815.395 460.202 811.258 442.741 809.561 427.405 C 806.102 396.142 803.415 364.735 800.617 333.402 C 799.426 319.184 795.651 286.558 797.023 273.987 C 797.895 266.252 800.967 258.93 805.876 252.89 C 818.874 236.909 847.598 236.294 866.74 234.417 z"/>
<path transform="translate(0,0)" fill="rgb(238,209,171)" d="M 1439.26 1399.4 C 1441.67 1399.14 1444.08 1398.95 1446.5 1398.82 C 1491.8 1396.78 1485.47 1443.37 1485.91 1474.82 C 1476.75 1476.91 1458.15 1478.74 1448.02 1480.14 C 1448.15 1469.67 1452.22 1442.64 1437.44 1443.03 C 1425.07 1443.35 1415.48 1445.48 1415.57 1459.73 C 1415.82 1503.35 1414.82 1547.33 1416.23 1590.87 C 1416.59 1602.22 1425.92 1603.1 1434.83 1602.65 C 1455.32 1602.79 1448.32 1565.39 1447.46 1550.45 L 1430 1551.39 L 1429.69 1511.63 L 1462 1508.83 C 1469.69 1507.83 1477.41 1507.15 1485.15 1506.79 C 1485 1525.64 1484.91 1549.7 1485.36 1567.19 C 1486.62 1615.42 1488.17 1643.9 1430.18 1644.48 C 1379.94 1644.98 1374.39 1622.47 1376.53 1577.21 C 1377.06 1565.87 1377.05 1552.41 1377.11 1541.34 L 1377.32 1477.4 C 1377.47 1421.01 1377.78 1405.55 1439.26 1399.4 z"/>
<path transform="translate(0,0)" fill="rgb(232,219,185)" d="M 280.178 503.77 C 281.536 504.517 388.236 664.676 400.702 682.141 C 391.731 691.09 378.012 702.505 368.172 711.508 L 345.838 677.611 C 337.171 684.887 324.647 694.103 317.332 703.08 C 315.46 705.377 316.786 708.303 317.459 711.311 C 321.083 723.685 324.877 736.009 328.838 748.279 C 319.363 757.797 305.759 769.375 295.59 778.525 C 275.724 702.042 257.61 619.352 236.204 544.337 C 249.376 530.602 265.82 516.208 280.178 503.77 z"/>
<path transform="translate(0,0)" fill="rgb(14,21,19)" d="M 278.409 570.691 C 282.27 573.406 322.818 638.901 328.131 647.244 L 317.266 657.038 L 305.501 667.447 C 298.958 650.488 280.805 588.04 278.409 570.691 z"/>
<path transform="translate(0,0)" fill="rgb(232,219,185)" d="M 1329.94 1413.41 L 1331.2 1414.15 C 1332.75 1420.06 1334.26 1433.1 1335.21 1439.48 L 1341.88 1483.68 C 1349.96 1536.56 1357.97 1591.48 1367.48 1644.02 L 1327.24 1644.24 C 1325.79 1630.76 1322.96 1616.95 1321.45 1602.92 C 1312.54 1602.97 1296.59 1601.11 1287.94 1603.08 C 1286.64 1603.38 1286.77 1605.15 1286.36 1607.09 C 1284.87 1619.6 1283.51 1632.13 1282.29 1644.67 C 1268.78 1644.86 1255.95 1645.06 1242.46 1645.85 C 1244.14 1625.4 1250.89 1596.61 1254.02 1575.58 C 1261.91 1522.47 1272.22 1468.53 1278.42 1415.29 C 1295.6 1414.83 1312.78 1414.21 1329.94 1413.41 z"/>
<path transform="translate(0,0)" fill="rgb(14,21,19)" d="M 1304.41 1462.78 C 1307.02 1465.52 1316.51 1554.32 1317.9 1567.33 L 1305.09 1567.63 L 1291.96 1567.89 C 1294.5 1533.82 1301.49 1497.13 1304.41 1462.78 z"/>
<path transform="translate(0,0)" fill="rgb(232,219,185)" d="M 1653.53 443.063 C 1671.76 442.005 1689.87 456.36 1703.85 466.25 C 1745.9 496.015 1727.6 524.4 1712.73 562.545 C 1701.76 554.847 1690.85 547.058 1680.01 539.179 C 1691.08 514.045 1698.47 503.535 1667.9 491.128 C 1662.26 499.275 1655.41 520.676 1652.56 530.499 C 1661.91 550.769 1683.47 568.892 1690.01 592.385 C 1691.91 598.985 1692.43 605.904 1691.54 612.714 C 1689.81 626.944 1676.19 659.652 1669.41 673.344 C 1665.82 680.59 1659.16 684.073 1651.45 685.941 C 1629.65 686.343 1619.13 675.518 1602.72 663.645 C 1562.87 634.813 1582.83 599.771 1595.18 563.018 C 1606.17 571.187 1616.95 579.644 1627.5 588.381 C 1622.27 603.234 1610.65 621.549 1625.95 632.547 C 1634.15 638.441 1643.19 638.95 1645.85 627.26 C 1648.43 615.956 1657.71 603.389 1650.73 592.213 C 1634.84 568.746 1608.96 545.144 1614.68 513.94 C 1617.79 496.975 1624.66 478.835 1631.4 462.842 C 1635.8 452.386 1642.92 446.656 1653.53 443.063 z"/>
<path transform="translate(0,0)" fill="rgb(238,209,171)" d="M 1729.8 1363.41 C 1731.76 1365.19 1730.88 1407.29 1730.87 1412.43 C 1713.86 1414.27 1696.89 1416.46 1679.97 1419.01 L 1679.83 1480.44 C 1693.41 1478.17 1708.5 1476.84 1722.3 1475.38 C 1722.6 1490.37 1722.53 1505.68 1722.62 1520.7 C 1710.73 1522.89 1692.15 1524.25 1679.8 1525.19 C 1680.01 1545.37 1680.05 1565.55 1679.93 1585.73 C 1696.71 1583.97 1713.47 1581.96 1730.2 1579.69 L 1730.35 1620.25 C 1730.45 1622.7 1730.4 1622.62 1729.72 1625.01 C 1724.82 1627.32 1650.99 1633.86 1641.12 1634.48 L 1639.91 1377.71 L 1729.8 1363.41 z"/>
<path transform="translate(0,0)" fill="rgb(232,219,185)" d="M 1000.71 226.55 C 1008.64 226.193 1017.02 226.154 1025 225.986 L 1026.15 271.771 C 1009.41 271.74 992.668 271.877 975.927 272.18 C 975.457 288.043 976.392 307.232 976.886 323.173 C 990.471 322.49 1004.07 322.123 1017.67 322.072 C 1017.83 337.21 1018.12 351.068 1018.99 366.167 C 1005.31 366.273 991.625 366.156 977.947 365.814 C 977.505 383.432 978.549 401.277 978.433 419.025 C 994.785 418.955 1011.14 418.969 1027.49 419.067 L 1028.02 445.25 L 1028.73 464.627 L 936.058 464.959 C 935.841 385.189 933.128 307.564 930.892 227.938 C 953.357 228.107 978.044 226.969 1000.71 226.55 z"/>
<path transform="translate(0,0)" fill="rgb(232,219,185)" d="M 408.807 403.001 C 412.152 407.428 420.821 456.569 422.642 465.263 C 434.569 522.221 448.586 579.386 463.395 635.652 C 450.344 644.809 435.216 655.941 422.784 665.707 C 412.105 648.513 398.374 629.532 386.777 612.585 L 322.296 518.133 L 299.737 485.75 C 310.41 476.285 323.244 466.131 334.337 456.912 L 419.853 597.146 C 402.75 543.557 389.135 481.809 374.663 427.185 C 384.93 419.273 398.097 410.505 408.807 403.001 z"/>
<path transform="translate(0,0)" fill="rgb(232,219,185)" d="M 1546.85 363.357 C 1572.35 379.603 1604.97 400.01 1630.86 414.935 C 1625.4 428.327 1620.15 441.689 1614.17 454.86 C 1599.6 446.639 1586 436.303 1570.87 428.251 C 1565.61 443.664 1560.48 459.124 1555.49 474.628 C 1567.34 482.136 1579.24 489.55 1591.2 496.871 C 1586.19 509.679 1581.47 523.505 1576.81 536.515 C 1564.77 529.2 1552.8 521.766 1540.9 514.213 C 1536.55 528.625 1530.78 543.546 1525.56 557.754 L 1524.56 561.214 C 1526.48 566.056 1559.59 585.439 1566.18 589.596 C 1561.66 602.643 1556.99 615.638 1552.17 628.578 C 1525.79 613.207 1500.42 596.55 1473.59 581.447 C 1485.16 549.678 1495.02 516.527 1506.02 484.496 C 1519.73 444.54 1535.2 403.941 1546.85 363.357 z"/>
<path transform="translate(0,0)" fill="rgb(232,219,185)" d="M 505.796 345.387 C 508.297 348.938 518.154 381.844 520.111 388.084 C 508.109 392.973 488.179 404.738 476.173 411.453 C 481.289 427.174 486.512 442.86 491.841 458.509 C 501.834 453.825 515.923 445.073 526.719 439.499 L 540.335 479.901 C 527.964 486.179 516.447 492.666 504.361 499.488 C 510.165 515.742 514.614 532.607 520.744 549.042 C 534.295 541.366 548.853 532.856 563.1 526.762 C 565.909 535.096 574.471 559.604 575.475 567.392 L 574.14 568.907 C 548.287 582.342 522.883 596.624 497.969 611.729 C 485.571 576.847 474.525 539.599 462.525 504.333 C 449.867 467.135 436.02 429.383 424.009 392.114 C 432.855 388.052 446.358 379.664 454.954 374.55 C 472.054 364.377 488.265 354.829 505.796 345.387 z"/>
<path transform="translate(0,0)" fill="rgb(232,219,185)" d="M 967.117 1420.45 C 970.054 1420.23 974.625 1420.35 977.701 1420.33 C 977.482 1434.62 977.416 1448.92 977.503 1463.21 C 961.993 1463.23 946.484 1463.33 930.975 1463.53 L 931.367 1514.91 L 970.866 1514.98 L 970.222 1555.99 C 957.179 1555.92 944.1 1556.02 931.089 1555.17 L 930.878 1605.92 L 977.814 1606.37 L 977.807 1631.04 L 977.755 1647.01 C 949.683 1646.65 921.608 1646.54 893.534 1646.67 C 892.27 1621.33 893.324 1586.56 893.377 1560.58 L 893.045 1421.02 C 916.342 1421.3 943.89 1421.66 967.117 1420.45 z"/>
<path transform="translate(0,0)" fill="rgb(232,219,185)" d="M 1227.84 1417.42 L 1228.37 1417.57 C 1231.09 1420.61 1230.08 1454.14 1230.07 1460.81 C 1214.74 1461.1 1199.42 1461.55 1184.1 1462.14 L 1184.18 1512.2 L 1223.11 1511.31 C 1222.9 1525.24 1223.04 1539.48 1223.04 1553.43 C 1210.16 1553.75 1197.04 1553.8 1184.13 1553.98 C 1184.26 1571.07 1184.24 1588.16 1184.08 1605.24 L 1231.4 1604.86 L 1231.22 1641.25 C 1231.06 1643.62 1231.46 1642.53 1229.94 1644.5 C 1219.48 1646.7 1161.61 1646.12 1146.91 1646.16 L 1146.9 1419.99 C 1173.17 1419.98 1201.6 1418.71 1227.84 1417.42 z"/>
<path transform="translate(0,0)" fill="rgb(232,219,185)" d="M 1222.38 245.642 C 1259.21 255.679 1299.35 264.763 1336.65 274.304 C 1333.88 288.667 1331.24 303.055 1328.72 317.466 C 1318.57 314.292 1304.88 311.314 1294.26 308.727 C 1291.38 321.041 1288.57 347.123 1286.68 360.719 C 1282.08 392.181 1277.79 423.688 1273.82 455.236 C 1271.79 469.665 1269.74 483.097 1268.66 497.657 C 1255.57 494.124 1242.63 491.261 1229.4 488.282 C 1235.77 426.425 1245.35 360.666 1252.9 298.415 C 1240.82 295.526 1228.69 292.848 1216.52 290.384 C 1219.08 275.935 1220.66 260.308 1222.38 245.642 z"/>
<path transform="translate(0,0)" fill="rgb(232,219,185)" d="M 546.907 1396.49 C 582.858 1401.04 618.904 1404.81 655.02 1407.78 L 654.776 1454.26 C 643.234 1453.31 631.684 1452.47 620.126 1451.74 C 622.009 1498.51 622.143 1562.87 620.478 1609.75 C 620.108 1620.87 620.663 1632.92 620.957 1644.11 L 581.21 1642.51 L 581.168 1447.49 C 569.693 1446.8 558.228 1445.96 546.775 1444.97 L 546.907 1396.49 z"/>
<path transform="translate(0,0)" fill="rgb(232,219,185)" d="M 1750.87 505.49 C 1762.67 511.435 1825.18 575.809 1839.92 589.229 C 1834.02 600.584 1827.49 615.606 1821.18 626.255 C 1811.89 617.423 1802.56 608.639 1793.17 599.905 C 1777.58 640.803 1754.38 686.661 1736.46 727.75 L 1720.3 765.441 C 1709.39 755.078 1697.94 745.341 1686.56 735.502 L 1760.11 568.044 C 1751.24 559.78 1743.36 552.475 1733.97 544.792 C 1738.52 532.746 1745.63 517.565 1750.87 505.49 z"/>
<path transform="translate(0,0)" fill="rgb(232,219,185)" d="M 668.08 1408.93 C 702.757 1410.07 740.848 1414.4 776.654 1415.98 C 776.232 1430.99 776.048 1446.01 776.1 1461.02 C 765.229 1459.51 752.027 1459.51 740.946 1459.47 L 740.86 1605.73 C 740.773 1618.83 740.771 1631.93 740.854 1645.03 C 728.153 1644.91 715.451 1644.97 702.752 1645.21 C 702.533 1637.38 702.653 1629.08 702.815 1621.25 C 703.942 1566.68 700.905 1511.76 702.573 1457.26 L 668.901 1455.57 C 668.309 1440.03 668.035 1424.48 668.08 1408.93 z"/>
<path transform="translate(0,0)" fill="rgb(232,219,185)" d="M 792.406 1418.03 L 831.886 1419.27 L 831.77 1604.96 L 873.138 1605.23 C 872.916 1618.99 873.141 1633.24 873.177 1647.03 L 792.291 1646.28 C 791.411 1571.66 791.608 1492.68 792.406 1418.03 z"/>
<path transform="translate(0,0)" fill="rgb(232,219,185)" d="M 1047.15 1421.65 C 1060.04 1421.34 1073.79 1421.64 1086.75 1421.73 C 1084.26 1480.4 1086.35 1545.77 1085.79 1605.02 L 1126.18 1604.87 L 1126.05 1646.25 C 1100.13 1646.78 1073.16 1646.56 1047.17 1646.7 L 1047.15 1421.65 z"/>
<path transform="translate(0,0)" fill="rgb(232,219,185)" d="M 698.059 1720.19 C 710.548 1719.3 747.64 1722.39 761.914 1723.09 C 804.461 1725.18 847.034 1726.72 889.621 1727.69 C 1040.18 1731.53 1190.82 1729.15 1341.18 1720.56 C 1337.57 1723 1333.42 1725.37 1329.66 1727.63 C 1298.73 1743.58 1242.67 1740.86 1207.33 1741.99 C 1089.93 1746 972.437 1746.11 855.035 1742.33 C 816.524 1741.06 776.211 1741.34 737.817 1736.69 C 723.918 1735 709.953 1727.17 698.059 1720.19 z"/>
</svg>